<?xml version="1.0" encoding="UTF-8"?>
<svg id="marca" xmlns="http://www.w3.org/2000/svg" viewBox="0 0 341.1 167.56">
  <defs>
    <style>
      .cls-1 {
        fill: #fff;
      }
    </style>
  </defs>
  <g id="testo">
    <g>
      <path class="cls-1" d="M139.09,75.19h9.99v18.96c0,3.69.25,6.25.76,7.69.51,1.44,1.32,2.55,2.45,3.35,1.12.8,2.51,1.19,4.15,1.19s3.04-.39,4.19-1.18c1.15-.78,2-1.94,2.56-3.46.41-1.13.62-3.56.62-7.27v-19.29h9.88v16.68c0,6.88-.54,11.58-1.63,14.11-1.33,3.09-3.28,5.46-5.86,7.11-2.58,1.65-5.86,2.48-9.84,2.48-4.32,0-7.81-.97-10.48-2.89-2.67-1.93-4.54-4.62-5.63-8.07-.77-2.39-1.16-6.73-1.16-13.03v-16.39Z"/>
      <path class="cls-1" d="M181.21,75.19h9.88v4.03c2.24-1.89,4.27-3.2,6.09-3.94,1.82-.74,3.68-1.11,5.58-1.11,3.9,0,7.21,1.36,9.94,4.09,2.29,2.32,3.43,5.74,3.43,10.28v26.02h-9.77v-17.24c0-4.7-.21-7.82-.63-9.36-.42-1.54-1.15-2.72-2.2-3.52-1.05-.81-2.34-1.21-3.88-1.21-2,0-3.71.67-5.14,2.01s-2.42,3.19-2.98,5.55c-.29,1.23-.43,3.89-.43,7.99v15.79h-9.88v-39.37Z"/>
      <path class="cls-1" d="M233.47,59.99v19.54c1.79-1.79,3.71-3.12,5.79-4.02,2.07-.89,4.29-1.34,6.66-1.34,5.14,0,9.5,1.94,13.1,5.83,3.59,3.88,5.39,8.86,5.39,14.94s-1.86,10.76-5.57,14.71c-3.71,3.94-8.12,5.92-13.21,5.92-2.27,0-4.38-.4-6.33-1.21-1.95-.81-3.9-2.13-5.83-3.96v4.16h-9.81v-54.57h9.81ZM243.85,83.29c-3.11,0-5.69,1.06-7.74,3.18-2.05,2.12-3.08,4.9-3.08,8.32s1.03,6.33,3.08,8.49c2.05,2.16,4.63,3.24,7.74,3.24s5.55-1.1,7.62-3.29c2.06-2.2,3.09-4.99,3.09-8.39s-1.01-6.15-3.04-8.3c-2.03-2.16-4.58-3.24-7.67-3.24Z"/>
      <path class="cls-1" d="M273.78,60.68h9.88v14.51h5.86v8.5h-5.86v30.87h-9.88v-30.87h-5.07v-8.5h5.07v-14.51Z"/>
      <path class="cls-1" d="M290.59,75.19h10.06l9.95,23.23,9.92-23.23h10.01l-16.75,39.37h-6.4l-16.79-39.37Z"/>
    </g>
  </g>
  <g id="simbolo">
    <path class="cls-1" d="M64.48,36.83c-30.35,0-54.95,24.6-54.95,54.95s24.6,54.95,54.95,54.95,54.94-24.61,54.94-54.95-24.59-54.95-54.94-54.95ZM82.49,57.89c4.06,11.13-2.45,24.33-15.83,31.57l-12.78-21.06c.58-.65.93-1.51.93-2.52-.08-2.17-1.86-3.66-3.85-3.72-2.17.02-3.92,1.55-3.92,3.72s1.74,3.74,3.89,3.74c.15,0,.3,0,.46-.02l12.81,21.08c-1.07.5-2.17.95-3.32,1.37-16.24,5.61-33.82-.1-38.94-12.94-5.63-14,5.14-29.69,21.8-35.11,17.33-5.83,34.51,1.42,38.76,13.87ZM75.22,131.81c-.11.44-.23.86-.37,1.28-.07.21-.14.41-.22.6-.13.34-.27.66-.42.97-.56,1.18-1.28,2.21-2.14,3.07-.13.14-.27.27-.42.4-.29.26-.59.5-.9.72-.21.14-.42.27-.64.4-.1.06-.2.11-.31.16-.12.07-.23.13-.35.19-.13.06-.26.12-.39.18-.1.04-.2.09-.29.12-.15.06-.31.12-.46.18-.07.02-.13.04-.2.06-2.7.87-6.08.78-10.08-.55-15.54-5.81-26.6-20.79-26.6-38.36,0-.87.04-1.72.09-2.59h0c1.68,1.02,3.49,1.92,5.39,2.66.38.15.76.29,1.15.42.39.14.78.27,1.18.39s.8.24,1.2.35c.39.1.78.21,1.17.3.09.02.19.05.29.07.31.07.62.14.93.2.06.01.13.02.19.04.38.08.77.15,1.15.21.35.06.71.12,1.07.16.16.02.33.04.5.06.37.05.73.09,1.1.12.35.04.71.07,1.06.09.07,0,.14,0,.21.01.86.05,1.73.09,2.61.09,1.13,0,2.27-.05,3.43-.14,4.29-.39,8.36-1.36,12.14-2.8.6.89,1.18,1.76,1.73,2.64.37.59.71,1.17,1.05,1.75.51.88.98,1.75,1.43,2.61.3.57.59,1.15.86,1.72.42.86.79,1.7,1.14,2.55.12.28.23.56.34.84.12.28.22.56.32.84.21.56.4,1.1.59,1.64.09.27.18.55.26.82.17.54.33,1.07.48,1.6.43,1.59.76,3.13.97,4.62.07.49.13.98.18,1.46.29,2.91.13,5.56-.43,7.85ZM102.11,129.42l-.06.06c-2.02,2.12-4.27,4.02-6.71,5.67-.08.05-.15.11-.23.16-2.03,1.36-4.2,2.54-6.47,3.52.02,0,.03-.02.05-.03.12-.08.23-.16.34-.24.05-.03.11-.07.16-.12.09-.07.18-.14.26-.22.02-.01.04-.02.06-.05.12-.1.23-.2.33-.31.12-.12.23-.24.34-.37.11-.12.21-.25.31-.38.12-.15.23-.31.32-.48.07-.11.13-.23.2-.35.08-.14.15-.29.22-.44.07-.15.13-.31.2-.46.1-.27.19-.54.26-.83.43-1.68.41-3.62.05-5.72-.16-.93-.4-1.89-.68-2.87-.1-.33-.2-.66-.31-.99-.2-.6-.42-1.21-.65-1.83-.3-.81-.64-1.62-1-2.44-.17-.39-.35-.78-.53-1.17-.35-.76-.73-1.53-1.12-2.3-.16-.3-.31-.6-.47-.9-.2-.39-.41-.78-.62-1.16-.21-.37-.41-.75-.62-1.12-2.65-4.73-5.65-9.17-7.92-12.4-.22-.31-.43-.6-.63-.89h0c-.2-.29-.4-.56-.58-.82-.56-.78-1.04-1.45-1.42-1.98-.13-.18-.24-.34-.34-.48-.21-.3-.37-.53-.47-.69,9.76-6.28,16.12-15.99,16.62-25.97.02-.56.02-1.12,0-1.66l-.02-.6c-.07-1.4-.23-2.75-.46-4.05,0,0,0,0,.01,0,13.51,6.71,22.8,20.64,22.8,36.74,0,10.93-4.28,20.85-11.24,28.19Z"/>
    <path class="cls-1" d="M71.37,109.6c.41.86.79,1.7,1.14,2.55-.35-.84-.72-1.69-1.14-2.55Z"/>
    <path id="ARO" class="cls-1" d="M95.35,135.15c2.44-1.64,4.68-3.55,6.71-5.67-2.07,2.06-4.32,3.96-6.71,5.67Z"/>
    <path id="ANTENA" class="cls-1" d="M31.53,98.63h0c1.68,1.04,3.48,1.94,5.39,2.67-1.91-.74-3.71-1.64-5.39-2.67ZM90.56,64.49s0,0-.01,0c.23,1.3.4,2.64.46,4.05-.05-1.4-.21-2.75-.45-4.04ZM91.06,125.95c.28.98.51,1.94.68,2.87-.16-.92-.39-1.89-.68-2.87ZM91.74,128.82c.36,2.09.38,4.04-.05,5.72.44-1.68.42-3.62.05-5.72Z"/>
  </g>
</svg>