<?xml version="1.0" encoding="UTF-8"?>
<svg id="Camada_1" xmlns="http://www.w3.org/2000/svg" viewBox="0 0 1080 1080">
  <defs>
    <style>
      .cls-1 {
        fill: #d0d0cf;
      }

      .cls-2 {
        fill: #fff;
      }

      .cls-3 {
        fill: #0564af;
      }
    </style>
  </defs>
  <rect class="cls-3" y="0" width="1080" height="1080"/>
  <g id="marca">
    <g id="logotipo">
      <g id="unbtv">
        <path class="cls-2" d="M167.83,869.67h38.83v73.72c0,14.35.99,24.31,2.96,29.9,1.98,5.58,5.15,9.92,9.52,13.01,4.37,3.09,9.75,4.64,16.15,4.64s11.82-1.52,16.29-4.57c4.47-3.05,7.78-7.53,9.94-13.44,1.6-4.41,2.4-13.83,2.4-28.28v-74.98h38.41v64.85c0,26.73-2.11,45.02-6.33,54.87-5.16,12.01-12.76,21.22-22.79,27.64-10.04,6.42-22.79,9.64-38.27,9.64-16.79,0-30.37-3.75-40.73-11.25-10.36-7.5-17.66-17.96-21.88-31.37-3-9.28-4.5-26.17-4.5-50.65v-63.73Z"/>
        <path class="cls-2" d="M331.61,869.67h38.41v15.69c8.71-7.34,16.6-12.45,23.67-15.32,7.07-2.87,14.31-4.31,21.7-4.31,15.17,0,28.05,5.3,38.63,15.9,8.9,9,13.35,22.32,13.35,39.95v101.15h-37.98v-67.03c0-18.27-.82-30.4-2.46-36.39-1.64-6-4.49-10.56-8.56-13.7-4.07-3.14-9.1-4.71-15.08-4.71-7.77,0-14.43,2.6-20,7.8-5.57,5.2-9.43,12.39-11.58,21.57-1.12,4.78-1.68,15.13-1.68,31.05v61.41h-38.41v-153.06Z"/>
        <path class="cls-2" d="M534.78,810.58v75.97c6.94-6.94,14.44-12.15,22.51-15.62,8.07-3.47,16.69-5.21,25.89-5.21,19.98,0,36.95,7.55,50.93,22.65,13.97,15.1,20.96,34.47,20.96,58.1s-7.22,41.85-21.67,57.19c-14.44,15.33-31.56,23-51.35,23-8.82,0-17.02-1.57-24.62-4.71-7.6-3.14-15.15-8.28-22.65-15.4v16.18h-38.13v-212.15h38.13ZM575.16,901.18c-12.1,0-22.14,4.13-30.11,12.38-7.97,8.25-11.96,19.04-11.96,32.36s3.99,24.6,11.96,32.99c7.97,8.39,18.01,12.59,30.11,12.59s21.6-4.27,29.61-12.8c8.02-8.53,12.03-19.41,12.03-32.64s-3.94-23.89-11.82-32.29c-7.88-8.39-17.82-12.59-29.83-12.59Z"/>
        <path class="cls-2" d="M691.51,813.25h38.41v56.41h22.79v33.06h-22.79v120h-38.41v-120h-19.7v-33.06h19.7v-56.41Z"/>
        <path class="cls-2" d="M756.85,869.67h39.13l38.67,90.32,38.58-90.32h38.93l-65.14,153.06h-24.9l-65.28-153.06Z"/>
      </g>
    </g>
    <g id="simbolo">
      <path class="cls-2" d="M540.23,53.33c-193.19,0-349.8,156.61-349.8,349.84s156.61,349.8,349.8,349.8,349.76-156.65,349.76-349.8S733.42,53.33,540.23,53.33ZM654.89,187.43c25.85,70.84-15.59,154.86-100.78,201.01l-81.37-134.1c3.69-4.12,5.95-9.6,5.95-16.02-.51-13.8-11.82-23.33-24.53-23.68-13.8.12-24.96,9.88-24.96,23.68s11.08,23.83,24.77,23.83c.97,0,1.91,0,2.92-.12l81.57,134.21c-6.84,3.19-13.84,6.07-21.15,8.75-103.38,35.73-215.28-.62-247.9-82.35-35.85-89.15,32.7-189.03,138.76-223.52,110.34-37.13,219.67,9.06,246.73,88.3ZM608.62,657.98c-.7,2.8-1.48,5.48-2.37,8.13-.43,1.32-.89,2.6-1.4,3.85-.82,2.14-1.71,4.2-2.68,6.18-3.58,7.5-8.13,14.07-13.61,19.52-.82.89-1.71,1.71-2.64,2.53-1.83,1.63-3.73,3.19-5.75,4.59-1.32.89-2.64,1.75-4.04,2.57-.62.39-1.28.7-1.94,1.05-.74.43-1.48.82-2.26,1.21-.82.39-1.63.78-2.49,1.13-.62.27-1.24.54-1.87.78-.97.39-1.94.78-2.92,1.13-.43.12-.86.23-1.24.39-17.18,5.56-38.69,4.94-64.15-3.5-98.91-36.97-169.36-132.35-169.36-244.2,0-5.52.23-10.96.58-16.48v-.08c10.69,6.57,22.2,12.29,34.33,16.99,2.41.93,4.86,1.83,7.35,2.68,2.49.89,4.98,1.71,7.5,2.49s5.09,1.52,7.66,2.22c2.49.66,4.94,1.32,7.46,1.91.58.16,1.21.31,1.83.43,1.94.47,3.93.89,5.91,1.28.39.08.82.16,1.21.23,2.45.51,4.9.93,7.35,1.32,2.26.39,4.51.74,6.8,1.05,1.05.16,2.1.27,3.19.39,2.33.31,4.67.58,7,.78,2.26.23,4.51.43,6.77.58.47.04.89.04,1.36.08,5.48.35,11.04.54,16.64.54,7.19,0,14.46-.31,21.81-.89,27.33-2.49,53.23-8.63,77.25-17.81,3.85,5.64,7.54,11.24,11,16.83,2.33,3.73,4.55,7.46,6.69,11.16,3.23,5.6,6.26,11.12,9.1,16.64,1.91,3.65,3.73,7.35,5.44,10.96,2.64,5.44,5.02,10.85,7.23,16.21.78,1.79,1.48,3.54,2.18,5.33.74,1.79,1.4,3.58,2.06,5.33,1.32,3.54,2.57,7,3.73,10.46.58,1.75,1.17,3.5,1.67,5.21,1.09,3.42,2.1,6.8,3.03,10.19,2.76,10.11,4.82,19.95,6.18,29.39.47,3.15.86,6.22,1.17,9.29,1.83,18.51.86,35.38-2.76,49.96ZM779.84,642.78l-.39.39c-12.87,13.49-27.18,25.62-42.69,36.08-.51.35-.97.7-1.44,1.01-12.95,8.63-26.75,16.17-41.21,22.43.12-.04.19-.12.31-.19.74-.51,1.44-1.01,2.14-1.56.35-.19.7-.47,1.01-.78.58-.43,1.13-.89,1.67-1.4.12-.08.27-.16.39-.35.74-.62,1.44-1.28,2.1-1.98.78-.74,1.48-1.52,2.14-2.33.7-.78,1.36-1.59,1.94-2.45.78-.97,1.44-1.98,2.06-3.03.43-.7.86-1.48,1.28-2.22.51-.89.93-1.83,1.4-2.8.47-.93.86-1.94,1.24-2.95.62-1.71,1.21-3.46,1.67-5.29,2.76-10.69,2.6-23.06.31-36.39-1.05-5.91-2.53-12.05-4.32-18.27-.62-2.1-1.24-4.2-1.94-6.3-1.24-3.85-2.64-7.7-4.12-11.62-1.91-5.13-4.04-10.34-6.34-15.55-1.09-2.49-2.22-4.94-3.34-7.43-2.26-4.86-4.63-9.76-7.11-14.66-1.01-1.91-1.98-3.85-2.99-5.75-1.28-2.49-2.6-4.94-3.93-7.39-1.32-2.37-2.6-4.78-3.93-7.11-16.87-30.13-35.96-58.4-50.39-78.96-1.4-1.94-2.72-3.85-4-5.64v-.04c-1.28-1.79-2.53-3.54-3.69-5.21-3.58-4.98-6.65-9.25-9.06-12.64-.82-1.13-1.56-2.14-2.18-3.07-1.32-1.91-2.33-3.34-2.99-4.39,62.13-40.01,102.6-101.83,105.83-165.35.12-3.58.12-7.11,0-10.58-.04-1.28-.08-2.57-.12-3.85-.43-8.94-1.48-17.5-2.95-25.78.04,0,.04.04.08.04,86,42.69,145.14,131.37,145.14,233.9,0,69.56-27.22,132.73-71.58,179.47Z"/>
      <path class="cls-1" d="M584.12,516.62c2.6,5.44,5.02,10.85,7.23,16.21-2.22-5.37-4.59-10.77-7.23-16.21Z"/>
      <path id="ARO" class="cls-1" d="M736.77,679.25c15.51-10.46,29.82-22.59,42.69-36.08-13.18,13.14-27.49,25.23-42.69,36.08Z"/>
      <path id="ANTENA" class="cls-2" d="M330.48,446.75v.08c10.69,6.57,22.16,12.25,34.33,16.91-12.13-4.7-23.64-10.42-34.33-16.99ZM706.28,229.42s-.04-.04-.08-.04c1.48,8.28,2.53,16.83,2.95,25.78-.35-8.94-1.32-17.5-2.88-25.74ZM709.47,620.7c1.79,6.22,3.27,12.36,4.32,18.27-1.01-5.87-2.49-12.01-4.32-18.27ZM713.79,638.97c2.29,13.34,2.45,25.7-.31,36.39,2.8-10.69,2.68-23.02.31-36.39Z"/>
    </g>
  </g>
</svg>